<?xml version="1.0" encoding="UTF-8"?> <svg xmlns="http://www.w3.org/2000/svg" xmlns:xlink="http://www.w3.org/1999/xlink" width="802.24" height="675.48"><path d="M724.82 436.72L420.28 260.9c-91.2-52.66-238.57-52.65-329.17 0S.98 398.92 92.18 451.57L396.7 627.4c91.2 52.65 238.57 52.64 329.17-.01 90.6-52.65 90.13-138-1.06-190.66z" fill="#bbd0fa"></path><path d="M357.44 176.32l-1-.5-.77-.4-1.22-.58-.88-.4-.36-.17-2.43-1.03-2.46-.92-.32-.1-2.12-.7-.6-.17-1.07-.3-.83-.23-.86-.2-1.07-.24-.57-.13-1-.16-1.66-.27-2.32-.23-.4-.04-.88-.03-1.55-.05c-.14 0-.3-.01-.43-.01l-1.68.05h-.2l-1.26.1-.8.1-.6.07-2.13.35c-.02 0-.04.01-.06.02l-.57.13-1.72.42-.82.26-1.08.34c-.1.03-.17.07-.26.1l-1.6.65-.78.33-2.27 1.18-7.05 4.1 2.27-1.18.78-.33 1.6-.65 1.34-.45.82-.26 1.72-.42.57-.13 2.2-.36.6-.07 2.04-.18.2-.01 2.1-.03 1.55.05 1.26.07 1.3.13 1.44.17 1.23.2 1.56.3 1.07.24 1.68.42 1.07.3 1.86.58.88.3 5.56 2.23.88.4 2 .97 1 .5 2.66 1.46 7.05-4.1-1.93-1.08c-.2-.16-.45-.27-.7-.4z" fill="#5f72a1"></path><path d="M690.42 446.2l-.02-.42-.04-.9-.05-1.05-.06-.8-.08-.95-.05-.62-.15-1.35-.12-1.04-.35-2.45c0-.02-.01-.04-.01-.05l-.06-.35-.36-2.06-.07-.37-.2-.98-.24-1.2-.16-.67-.25-1.07-.2-.83-.26-1-.28-1.08-.14-.53-.4-1.4-.27-.9-.08-.26-.8-2.53c0-.01-.01-.02-.01-.03-.02-.07-.05-.14-.08-.22l-.78-2.24-.13-.35-.3-.84-.45-1.2-.3-.76-.64-1.6-.58-1.36-.3-.72-.1-.26-1.07-2.36c-.02-.03-.03-.07-.05-.1l-.32-.66-.88-1.8-.15-.28-.76-1.47-.6-1.2-.12-.2-2.3-4.08-.57-.94-.92-1.52-.85-1.34-.96-1.48-.32-.5-.32-.46-2.77-3.95c-.01-.01-.01-.02-.02-.03l-2.06-2.7-.1-.12-1.57-1.93-.3-.37c-.01-.01-.01-.02-.02-.02l-1.9-2.2c-.03-.04-.07-.07-.1-.1l-.58-.65-1.22-1.35-.23-.25-.84-.88-.93-.97-.35-.35-1.7-1.7-.46-.43-1-.93-.7-.64-.55-.48-1.62-1.4-.67-.55-1-.8-.5-.42-.85-.65-1.3-1-1.92-1.37-.2-.14-2.08-1.37c-.01 0-.01-.01-.02-.01l-.15-.1-1.9-1.16-.48-.28-21.1-12.2-.1-.3-.32-1.08-.84-2.86-.4-1.23-.85-2.63-.42-1.22-.7-2.05-.2-.54-.45-1.2-.7-1.88-.22-.58-.48-1.18-.73-1.8-.24-.6-1.26-2.94-.25-.6-1.37-3-.3-.63-.47-.98-1.03-2.13-.36-.75-.38-.73-1.38-2.68-.45-.87-.28-.5-.88-1.62-.98-1.76-1.6-2.76-2.9-4.78-.48-.75-2.43-3.72-.4-.62-.4-.57-1-1.44-1.18-1.68-1.02-1.42-.68-.94-.4-.5-2.48-3.25-.32-.43-.08-.1-2.67-3.3-.12-.15-.67-.78-2.17-2.54-2.92-3.24-.64-.67-1.75-1.84-.62-.65-.5-.48-1.96-1.93-.72-.72-.28-.27-2.66-2.47-.33-.3c-.01-.01-.03-.02-.04-.04l-3.28-2.86-.75-.6-2.58-2.1-2.65-2.02-.62-.48-.65-.46-2.57-1.82-.53-.35-1.76-1.16-.9-.6-.43-.26-1.7-1.04-1-.62-.73-.42-2.37-1.33c-.02-.01-.05-.02-.07-.04l-2.8-1.45c-.05-.03-.1-.06-.16-.08l-.62-.3-2.4-1.13-.6-.26-1.82-.77-.56-.24-.43-.16-1.96-.74-.6-.23-.2-.06-2.74-.9-.08-.03-2.17-.62-.07-.26-1.37-4.67-1.47-4.6-1.37-3.92-.2-.6-.55-1.47-1.08-2.87-.58-1.45-1.14-2.83-.62-1.45-.9-2.1-.28-.66-.62-1.36-1.34-2.96-.57-1.18-1.63-3.38-.47-.9-2.13-4.14-.37-.67-1.03-1.88-1.17-2.1-1.07-1.87-.73-1.28-.33-.54-3.18-5.23-.46-.72-3.45-5.28-1.7-2.48-1.38-1.96-1.24-1.72-.76-1.05-.48-.62-3.33-4.36-.12-.15-3.32-4.1-.8-.92-2.24-2.62-.34-.4-.87-.96-2.06-2.28-.53-.6-.77-.8-2.1-2.2-.73-.77-.6-.58-3.18-3.14-.35-.32-3.53-3.28c-.02-.02-.04-.03-.06-.05l-3.9-3.4-3.45-2.82-.5-.4-.9-.7-2.25-1.72-.73-.56-.77-.55-2.13-1.52-.92-.65-.63-.42-2.1-1.38-1.06-.7-.5-.3-3.22-1.97-.87-.5-2.6-1.45-.22-.12-.38-.2-2.9-1.5-.36-.18c-.05-.03-.1-.05-.15-.07l-3.43-1.6-.4-.16-3.1-1.32c-.01-.01-.03-.01-.05-.02l-3.57-1.34-.28-.1-3.27-1.07-.33-.1-3.32-.92c-.01 0-.02 0-.03-.01l-3.65-.8-.32-.06-.86-.15-1.13-.2-.87-.13-.63-.1-.45-.05-1-.12-1.02-.1-1-.08-.55-.05h-.42l-1.1-.06-.92-.03-1.1-.02c-.2 0-.4-.01-.6-.01l-.28.01-1.48.04-.64.02-2.07.14c-.06 0-.1.01-.13.01l-2.2.25-.65.1-1.84.3-.34.06c-.03.01-.07.02-.1.02l-2.73.64-.48.13-2.6.8-.2.06-.43.16-1.12.42-.7.28-1.1.47-.66.3-1.16.57-.55.28-1.67.92-7.05 4.1 1.67-.92.55-.28 1.16-.57.67-.3 1.1-.47.7-.28 1.12-.42.62-.22 2.6-.8.48-.13 2.73-.64.44-.08 1.84-.3.65-.1 2.2-.25c.04 0 .1-.01.13-.01l2.07-.14.64-.02 1.48-.04h.88l1.1.02.92.03 1.1.06.97.07 1 .08 1.02.1 1 .12 1.08.15.87.13 1.13.2.86.15.64.13 3.33.74c.05.01.1.03.14.04l3.22.9.52.15 3.08 1 .65.23 3.2 1.2c.02.01.03.01.05.02l3.1 1.32.7.3 3.13 1.47.5.26 2.9 1.5.6.32 2.6 1.45 2.06 1.23 2.03 1.24 1.57 1 2.1 1.38 1.55 1.07 2.13 1.52 1.5 1.1 2.25 1.7 1.42 1.1 2.57 2.1 1.12.92 3.64 3.18.5.45 3.1 2.9 1.2 1.17 2.32 2.3 1.32 1.35 2.08 2.18 1.3 1.4 2.05 2.28 1.2 1.36 2.24 2.62.93 1.1 3.18 3.93.54.7 2.9 3.8 1.24 1.68 1.24 1.7 1.4 1.97 1.2 1.73 1 1.47 2.98 4.56.46.72 3.18 5.23 1.07 1.84 1.06 1.86 1.17 2.1 1.02 1.88.9 1.7 1.6 3.1.88 1.76 1.22 2.53.9 1.9 1.03 2.25.9 2.03.9 2.1.9 2.1.87 2.16.82 2.1.84 2.22.76 2.06.86 2.45.66 1.94.85 2.65.56 1.78.94 3.2.4 1.42 2.25.64 2.74.9.8.3 1.96.74 1 .4 1.82.77.98.43 2 .94.78.38 2.8 1.45 2.44 1.36 1.74 1.04 1.7 1.04 1.33.86 1.76 1.16 1.3.9 1.8 1.27 1.28.94 1.9 1.44 1.2.94 2.14 1.75.96.8 3.07 2.68.37.34 2.66 2.47 1 .98 1.96 1.93 1.1 1.14 1.75 1.84 1.1 1.2 1.73 1.92 1.02 1.15 1.88 2.2.8.93 2.67 3.3.4.53 2.48 3.25 1.06 1.44 1.03 1.42 1.18 1.68 1 1.44.8 1.2 2.43 3.7.48.75 2.66 4.37.92 1.58.92 1.6.98 1.76.88 1.62.73 1.38 1.38 2.68.74 1.5 1.03 2.14.76 1.6.86 1.9.76 1.7.75 1.76.75 1.78.73 1.8.7 1.77.7 1.88.64 1.74.72 2.05.56 1.65.7 2.2.48 1.53 1.15 3.95 21.1 12.2 2.53 1.53 2.3 1.53.77.55 1.52 1.1.92.7 1.36 1.07 1 .8 1.3 1.1 1 .88 1.25 1.13 1 .93 1.25 1.2.92.9 1.28 1.32.84.88 1.46 1.6.58.65 2 2.34.3.37 1.66 2.06 2.04 2.68c.01.02.03.04.04.06l2.77 3.95.64.95.96 1.48.85 1.34.92 1.52.75 1.26 2.1 3.76.73 1.4.76 1.47 1.02 2.1.33.67 1.23 2.7.3.72.85 2.03.37.93.76 1.96.32.84.9 2.6c.02.07.05.15.08.22l.9 2.82.26.9.55 1.95.28 1.07.45 1.8.25 1.07.4 1.86.2.98.5 2.78.4 2.77.1.78.2 1.97.08.94.1 1.86.04.9.05 2.62-.01 3.83-.07 2.7-.05.73-.13 1.8-.1 1-.18 1.48-.16 1.07-.23 1.33-.23 1.17-.27 1.17-.35 1.34-.3 1.02-.52 1.55-.3.82-1.05 2.48-.9 1.8-1.04 1.73-.22.33-.84 1.2-.35.46-.84 1.03-.33.38-1.22 1.27-.18.17-1.12 1-.42.34-1 .76-.42.3-1.45.92 7.05-4.1 1.45-.92.42-.3 1-.76.42-.34 1.12-1 .18-.17 1.22-1.27.33-.38.84-1.03.35-.46.84-1.2.22-.33.07-.1.96-1.62.9-1.72c.01-.03.02-.06.04-.08l1.14-2.7.2-.6.52-1.55c.04-.14.1-.27.14-.4l.16-.6.35-1.34.14-.54c.05-.2.08-.42.12-.62l.23-1.17.12-.6.1-.73.16-1.07.08-.54.1-.94.1-1 .04-.4.1-1.4.05-.73c0-.06.01-.12.01-.18l.06-2.36v-.14-3.83l-.08-2.27z" fill="#c3c3c5"></path><path d="M683.37 450.28l-.02-.42-.04-.9-.05-1.05-.06-.8-.08-.95-.05-.62-.15-1.35-.1-.8-.03-.26-.35-2.45c0-.02-.01-.04-.01-.05l-.06-.36-.35-2.05-.08-.37-.2-.98-.24-1.2-.16-.67-.44-1.9-.26-1-.28-1.08-.14-.53-.68-2.32c-.03-.1-.05-.17-.07-.26l-.8-2.53c0-.01-.01-.02-.01-.03l-.08-.24-.77-2.22-.13-.35-.32-.84-.45-1.2-.3-.76-.64-1.6-.58-1.35-.3-.73-.1-.25-1.07-2.36c-.02-.03-.03-.07-.05-.1l-.33-.68-.87-1.8-.15-.28-1.37-2.65-.12-.2-2.3-4.08-.57-.94-.92-1.52-.85-1.34-.96-1.48-.32-.5-.32-.45-2.77-3.95-.03-.03-2.14-2.82-1.56-1.93-.3-.38c-.01-.01-.01-.02-.02-.02l-1.9-2.2-.1-.1-.6-.66-1.2-1.34-.23-.24-.84-.88-.92-.97-.35-.35-1.7-1.7-.46-.42-1-.93-.7-.64-.55-.48-1.62-1.4-.67-.55-1-.8-.5-.42-.84-.64-.93-.7a5.25 5.25 0 0 1-.37-.29l-1.14-.8-.78-.56-.2-.14-2.08-1.37c-.01 0-.01-.01-.02-.01l-.15-.1-1.9-1.16-.48-.28-21.1-12.2-.1-.32-.3-1.07-.84-2.87-.4-1.22-.85-2.64-.42-1.2-.72-2.07-.2-.53-1.38-3.65-.47-1.18-.97-2.42-.5-1.18-.75-1.76-.25-.6-.5-1.12-.86-1.9-.3-.63-.47-.97-1.4-2.9-.38-.73-1.38-2.68-.45-.87-.28-.5-.9-1.63-.97-1.75-.92-1.6-.67-1.16-2.9-4.78-.47-.74-2.44-3.73-.4-.62-.4-.57-1-1.44-1.18-1.67-1.03-1.42-.67-.93-.4-.5-2.88-3.77-2.8-3.45-2.55-2.98-.3-.34-2.92-3.24-.64-.67-1.75-1.84-.62-.65-.5-.48-1.96-1.94-.72-.7-.3-.27-2.98-2.77-.04-.04-3.28-2.86-.75-.6-2.6-2.1-.77-.58-1.9-1.44-.62-.48-.65-.46-2.57-1.82-.53-.35-1.76-1.16-.9-.6-.43-.26-1.7-1.05-1-.6-.73-.43-2.37-1.33c-.02-.01-.05-.02-.07-.04l-2.8-1.45-.17-.1-.62-.3-2.38-1.12-.6-.25-1.84-.78-.56-.24-.42-.16-2.6-.97-.18-.06-2.75-.9-.1-.03-2.12-.6-.08-.28-1.36-4.68-.47-1.46-1-3.13-.5-1.46-.86-2.47-.2-.6-1.4-3.7-.24-.65-.58-1.45-1.14-2.83L516 228l-.9-2.1-.28-.66-.62-1.36-1.03-2.25-.32-.7-.57-1.18-1.64-3.38-.46-.9-1.6-3.12-.53-1.02-.37-.67-1.03-1.9-1.17-2.1-1.07-1.87-.73-1.28-.33-.54-3.18-5.23-.46-.72-3.45-5.28-1.7-2.48-1.38-1.96-1.24-1.72-.76-1.05-.47-.62-3.33-4.36-.12-.15-3.18-3.92-.14-.17-.78-.92-2.57-3.02-.87-.96-2.06-2.28-.53-.6-.77-.8-2.1-2.2-.73-.77-.6-.6-3.17-3.14-.35-.32-3.53-3.3c-.02-.02-.04-.04-.06-.05l-3.64-3.18-.24-.2-.88-.72-2.57-2.1-.5-.4-.9-.7-2.25-1.72-.73-.56-.77-.55-2.13-1.52-.92-.65-.63-.42-3.15-2.08-.5-.3-3.2-1.97-.87-.5-2.82-1.58-.4-.2-2.88-1.5-.36-.2c-.05-.03-.1-.05-.16-.07l-3.12-1.47-.3-.14-.4-.16-3.1-1.32c-.01-.01-.03-.01-.04-.02l-3.57-1.34-.28-.1-3.27-1.07-.33-.1-3.33-.92c-.01 0-.02 0-.03-.01l-3.65-.8-.3-.06-.86-.15-1.13-.2-.86-.13-.63-.1-.45-.05-1-.12-1.02-.1-1-.08-.55-.05-.42-.02-1.1-.06-.93-.03-1.1-.02c-.2 0-.4-.01-.6-.01l-.28.01-1.47.04h-.64l-2.07.14h-.03c-.04 0-.08.01-.1.01l-2.18.25-.65.1-1.83.3-.35.06c-.03.01-.07.02-.1.02l-2.73.64-.48.13-2.6.8-.2.06-.43.16-1.12.42-.7.28-1.1.47-.66.3-1.16.57-.55.28-1.67.92-172.9 100.6.67-.3 1.1-.47.7-.28 1.12-.42.62-.22 2.6-.8.48-.13 2.73-.64.45-.08 1.83-.3.65-.1 2.1-.25-87.4 50.8 2.27-1.18.77-.33 1.6-.66 1.35-.45.82-.26 1.72-.42.56-.13 2.2-.36.6-.07 2.05-.18.2-.01 2.1-.03 1.55.05 1.26.07 1.3.13 1.44.17 1.23.2 1.56.3 1.07.24 1.68.42 1.07.3 1.85.57.88.3 5.56 2.23.88.4 2 .98 1 .5 2.67 1.46 81.13-47.15 1.07.5.5.26 2.88 1.5.6.33 2.6 1.45 2.06 1.23 2.02 1.24 1.58 1.02 2.1 1.38 1.55 1.07 2.13 1.5 1.5 1.1 2.25 1.7 1.42 1.1 2.56 2.1 1.12.93 3.64 3.18.5.46 3.1 2.87 1.2 1.17 2.32 2.3 1.32 1.35 2.08 2.18 1.3 1.4 2.05 2.28 1.2 1.36 2.24 2.62.92 1.1 3.18 3.92.54.7 2.9 3.8 1.23 1.67 1.24 1.7 1.4 1.97 1.2 1.73 1 1.47 2.98 4.56.46.72 3.18 5.23 1.06 1.83 1.07 1.87 1.17 2.1 1.02 1.88.9 1.7 1.6 3.1.88 1.76 1.22 2.52.9 1.9 1.02 2.25.9 2.03.9 2.1.9 2.1.87 2.16.82 2.1.84 2.22.76 2.06.86 2.45.66 1.94.85 2.65.56 1.8.93 3.17.42 1.46 2.22.64 2.75.9.76.28 2 .75.98.4 1.83.78 1 .44 2 .94.8.38 2.8 1.45 2.44 1.36 1.74 1.04 1.7 1.04 1.33.86 1.76 1.16 1.3.9 1.8 1.27 1.27.94 1.9 1.44 1.2.94 2.14 1.75.96.8 3.07 2.68.38.35 2.65 2.46 1 1 1.95 1.93 1.12 1.14 1.75 1.83 1.1 1.2 1.73 1.92 1.02 1.15 1.88 2.2.8.93 2.67 3.3.4.54 2.47 3.24 1.06 1.44 1.03 1.42 1.18 1.67 1 1.44.8 1.2 2.43 3.72.48.74 2.66 4.37.92 1.57.92 1.6.98 1.76.88 1.62.73 1.38 1.38 2.68.74 1.48 1.03 2.14.76 1.6.86 1.9.76 1.7.75 1.76.75 1.78.73 1.8.7 1.76.7 1.88.64 1.74.72 2.05.56 1.64.7 2.2.48 1.53.74 2.55.4 1.4 21.1 12.2 2.53 1.53 2.3 1.53.78.55 1.52 1.1.92.7 1.36 1.06 1 .8 1.28 1.08 1 .88 1.24 1.13 1 .93 1.25 1.2.92.9 1.28 1.32.84.88 1.45 1.6.6.65 2 2.34.3.38 1.65 2.05 2.05 2.7c.01.01.02.02.03.04l2.77 3.95.64.94.96 1.5.85 1.34.92 1.52.75 1.26 2.1 3.76.73 1.4.76 1.47 1.02 2.08.33.67 1.23 2.7.3.72.85 2.03.37.93.76 1.96.32.84.9 2.6c.02.07.05.15.08.22l.9 2.82.27.9.55 1.94.28 1.08.45 1.8.25 1.07.4 1.86.2.98.43 2.44.06.35.4 2.77.1.78.2 1.97.08.94.1 1.86.04.9.05 2.62-.01 3.84-.07 2.68-.05.74-.13 1.8-.1 1-.18 1.48-.16 1.07-.23 1.33-.23 1.17-.27 1.17-.35 1.34-.3 1.02-.5 1.55-.3.82-1.05 2.48-.92 1.8-1.03 1.72-.22.33-.84 1.2-.35.46-.84 1.03-.33.38-1.22 1.27-.18.17-1.12 1-.42.34-1 .76-.42.3-1.45.92 176.2-102.4 1.45-.92.42-.3 1-.76.42-.34 1.12-1 .18-.17 1.22-1.27.33-.38.84-1.03.35-.46.84-1.2.22-.33.07-.1.95-1.6c0-.01.01-.02.01-.02l.88-1.7c.01-.03.02-.06.04-.08l1.14-2.7.2-.6.5-1.55c.04-.14.1-.27.14-.4l.16-.6.35-1.34.14-.55c.05-.2.08-.42.12-.62l.23-1.17.12-.6.27-1.8.08-.54.1-.94.1-1 .04-.4.1-1.4.05-.74c0-.06.01-.12.01-.18l.06-2.36v-.14l.01-3.84v-2.16z" fill="#1b2946"></path><path d="M265.66 241.15c37.8 21.82 69.98 67.67 82.57 113.3 6.24 1.66 12.8 4.4 19.57 8.32 31.87 18.4 59 57.08 69.6 95.57l21.1 12.2c26.98 15.58 48.78 53.34 48.7 84.35v3.84c-.1 31-22.03 43.52-49 27.94L164.5 417.1c-26.98-15.58-48.78-53.35-48.7-84.35l.01-3.84c0-1.58.08-3.1.2-4.6-.1-1.78-.18-3.54-.17-5.3.1-38.6 27.42-54.15 61-34.76 3.74-50.62 42.1-70.08 88.8-43.12z" fill="#f6f0e9"></path><path d="M593.06 225.5c.03-10.92-7.66-24.23-17.16-29.72L399.63 94c-9.5-5.5-17.24-1.08-17.27 9.84l-.76 268.4c.06.05.12.1.18.14.72.57 1.43 1.16 2.14 1.75l.96.8c1.03.87 2.05 1.76 3.07 2.68.13.1.25.24.38.35l2.65 2.46a47.15 47.15 0 0 1 1.01.99l1.95 1.93 1.12 1.14 1.75 1.83 1.1 1.2 1.73 1.92 1.02 1.15 1.88 2.2.8.93L406 397l.4.54 2.47 3.24 1.06 1.44 1.03 1.42 1.18 1.67 1 1.44.8 1.2 2.43 3.72.48.74c.9 1.44 1.8 2.9 2.66 4.37l.92 1.57.92 1.6.98 1.76.88 1.62.73 1.38 1.38 2.68.74 1.48 1.03 2.14.76 1.6.86 1.9.76 1.7c.26.58.5 1.17.75 1.76l.75 1.78.73 1.8.7 1.76.7 1.88.64 1.74c.25.68.48 1.37.72 2.05l.56 1.64.7 2.2.48 1.53.74 2.55.4 1.4 21.1 12.2a65.47 65.47 0 0 1 2.38 1.44l.15.1c.77.5 1.53 1 2.3 1.53l.78.55 1.52 1.1.92.7 1.36 1.06 1 .8 1.28 1.08 1 .88c.42.37.83.75 1.24 1.13l1 .93 1.25 1.2.92.9c.43.43.85.87 1.28 1.32l.84.88c.5.52.97 1.06 1.45 1.6.2.22.4.43.6.65a112.02 112.02 0 0 1 2 2.34c.1.13.2.25.3.38.56.67 1.1 1.35 1.65 2.05.7.9 1.38 1.78 2.05 2.7.01.01.02.02.03.04.95 1.3 1.87 2.6 2.77 3.95l.64.94c.33.5.64 1 .96 1.5l.85 1.34.92 1.52.75 1.26a116.07 116.07 0 0 1 2.11 3.76l.73 1.4.76 1.47 1.02 2.08.33.67 1.23 2.7c.1.24.2.48.3.72l.85 2.03a35.94 35.94 0 0 1 .37.93l.76 1.96.32.84a88.76 88.76 0 0 1 .91 2.59c.02.07.05.15.08.22l.9 2.82.27.9.55 1.94c.1.36.2.72.28 1.08.16.6.3 1.2.45 1.8l.25 1.07.4 1.86.2.98c.13.67.24 1.33.35 2l34.66 20 51.6-30 .7-306.75z" fill="#fafafa"></path><g fill="#bbd0fa"><use xlink:href="#B"></use><use xlink:href="#B" y="50.03"></use><use xlink:href="#B" y="100.05"></use><use xlink:href="#B" y="150.09"></use><use xlink:href="#B" y="200.12"></use></g><path d="M547 241.54c.03-10.92-7.66-24.23-17.16-29.72L353.56 110.05c-9.5-5.5-17.24-1.08-17.27 9.84l-.46 202.38.78 1.6.9 1.9 1.02 2.25.9 2.03.9 2.1.9 2.1.87 2.16.82 2.1.84 2.22.76 2.06.86 2.45.66 1.94.85 2.65.56 1.8.93 3.17.42 1.46a61.73 61.73 0 0 1 2.22.64 79.96 79.96 0 0 1 2.75.9l.76.28 2 .75.98.4 1.83.78c.33.14.66.3 1 .44l2 .94c.26.13.53.25.8.38a83.27 83.27 0 0 1 2.8 1.45l2.44 1.36 1.74 1.04 1.7 1.04c.45.28.9.57 1.33.86l1.76 1.16 1.3.9 1.8 1.27 1.27.94 1.9 1.44 1.2.94c.72.57 1.43 1.16 2.14 1.75l.96.8c1.03.87 2.05 1.76 3.07 2.68.13.1.25.24.38.35l2.65 2.46c.34.32.68.66 1 1l1.95 1.93 1.12 1.14 1.75 1.83 1.1 1.2 1.73 1.92 1.02 1.15 1.88 2.2.8.93 2.67 3.3.4.54 2.47 3.24 1.06 1.44 1.03 1.42 1.18 1.67 1 1.44.8 1.2 2.43 3.72.48.74c.9 1.44 1.8 2.9 2.66 4.37l.92 1.57.92 1.6.98 1.76.88 1.62.73 1.38 1.38 2.68.74 1.48 1.03 2.14.76 1.6.86 1.9.76 1.7c.26.58.5 1.17.75 1.76l.75 1.78.73 1.8.7 1.76.7 1.88.64 1.74c.25.68.48 1.37.72 2.05l.56 1.64.7 2.2.48 1.53.74 2.55.4 1.4 21.1 12.2a65.47 65.47 0 0 1 2.38 1.44l.15.1c.77.5 1.53 1 2.3 1.53l.78.55 1.52 1.1.92.7 1.36 1.06 1 .8 1.28 1.08 1 .88c.42.37.83.75 1.24 1.13l1 .93 1.25 1.2.92.9c.43.43.85.87 1.28 1.32l.84.88a74.58 74.58 0 0 1 1.45 1.6c.2.22.4.43.6.65a112.02 112.02 0 0 1 2 2.34c.1.13.2.25.3.38.56.67 1.1 1.35 1.65 2.05.7.9 1.38 1.78 2.05 2.7.01.01.02.02.03.04.95 1.3 1.87 2.6 2.77 3.95l.64.94c.33.5.65 1 .96 1.5l.85 1.34.92 1.52.75 1.26a116.07 116.07 0 0 1 2.11 3.76l.73 1.4.76 1.47 1.02 2.08.33.67 1.23 2.7c.1.24.2.48.3.72l.85 2.03c.13.3.25.62.37.93l.76 1.96.32.84a88.76 88.76 0 0 1 .91 2.59c.02.07.05.15.08.22l.9 2.82.27.9.55 1.94c.1.36.2.72.28 1.08.16.6.3 1.2.45 1.8l.25 1.07.4 1.86.2.98c.16.8.3 1.63.43 2.44l.06.35c.15.93.27 1.85.4 2.77l.1.78.2 1.97c.03.32.05.63.07.94.05.62.08 1.24.1 1.86l.04.9c.03.88.05 1.75.05 2.62l-.01 3.84c0 .9-.03 1.8-.07 2.68-.01.25-.03.5-.05.74-.03.6-.08 1.2-.13 1.8l-.1 1c-.05.5-.1 1-.18 1.48l-.16 1.07c-.07.45-.15.9-.23 1.33-.07.4-.15.78-.23 1.17s-.17.78-.27 1.17c-.1.45-.23.9-.35 1.34-.1.34-.2.7-.3 1.02-.16.53-.34 1.04-.5 1.55l-.3.82c-.32.85-.67 1.68-1.05 2.48-.3.62-.6 1.22-.92 1.8-.16.28-.33.55-.5.82l3.34 1.93 40.5-23.53.73-319.6z" fill="#273053"></path><path d="M490.17 502.27l.85 1.34.92 1.52.75 1.26 2.1 3.76.73 1.4.76 1.47 1.02 2.08.33.67 1.23 2.7.3.72.85 2.03.37.93.76 1.96.32.84.9 2.6c.02.07.05.15.08.22l.9 2.82.27.9.55 1.94.28 1.08.45 1.8.25 1.07.4 1.86.2.98.43 2.44.06.35.33 2.35.63-276.86c.03-10.92-7.66-24.23-17.16-29.72L313.78 137.04c-9.5-5.5-17.24-1.08-17.27 9.84l-.27 118.2.46.45 1.32 1.35 2.08 2.18 1.3 1.4 2.05 2.28 1.2 1.36 2.24 2.62.92 1.1 3.18 3.92.54.7 2.9 3.8 1.23 1.67 1.24 1.7 1.4 1.97 1.2 1.73 1 1.47 2.98 4.56.46.72a214.19 214.19 0 0 1 3.18 5.23l1.06 1.83 1.07 1.87 1.17 2.1 1.02 1.88.9 1.7 1.6 3.1.88 1.76 1.22 2.52.9 1.9 1.02 2.25.9 2.03 1.8 4.2.87 2.16.82 2.1.84 2.22.76 2.06.86 2.45.66 1.94.85 2.65.56 1.8.93 3.17.42 1.46a61.73 61.73 0 0 1 2.22.64 79.96 79.96 0 0 1 2.75.9l.76.28 2 .75.98.4 1.83.78 1 .44 2 .94c.26.13.53.25.8.38a83.27 83.27 0 0 1 2.8 1.45l2.44 1.36 1.74 1.04 1.7 1.04c.45.28.9.57 1.33.86l1.76 1.16 1.3.9 1.8 1.27 1.27.94 1.9 1.44 1.2.94c.72.57 1.43 1.16 2.14 1.75l.96.8c1.03.87 2.05 1.76 3.07 2.68.13.1.25.24.38.35l2.65 2.46a47.15 47.15 0 0 1 1.01.99l1.95 1.93 1.12 1.14 1.75 1.83 1.1 1.2 1.73 1.92 1.02 1.15 1.88 2.2.8.93 2.67 3.3.4.54 2.47 3.24 1.06 1.44 1.03 1.42 1.18 1.67 1 1.44.8 1.2 2.43 3.72.48.74 2.66 4.37.92 1.57.92 1.6.98 1.76.88 1.62.73 1.38 1.38 2.68.74 1.48 1.03 2.14.76 1.6.86 1.9.76 1.7c.26.58.5 1.17.75 1.76l.75 1.78.73 1.8.7 1.76.7 1.88.64 1.74c.25.68.48 1.37.72 2.05l.56 1.64.7 2.2.48 1.53.74 2.55.4 1.4 21.1 12.2a65.47 65.47 0 0 1 2.38 1.44l.15.1 2.3 1.53.78.55 1.52 1.1.92.7 1.36 1.06 1 .8 1.28 1.08 1 .88c.42.37.83.75 1.24 1.13l1 .93 1.25 1.2.92.9c.43.43.85.87 1.28 1.32l.84.88c.5.52.97 1.06 1.45 1.6l.6.65a112.02 112.02 0 0 1 2 2.34l.3.38a86.78 86.78 0 0 1 1.65 2.05l2.05 2.7c.01.01.02.02.03.04.95 1.3 1.87 2.6 2.77 3.95l.64.94.96 1.5zm16.36 65.1c-.01.04-.01.08-.02.12l-.23 1.33-.23 1.17-.27 1.17-.35 1.34-.3 1.02-.5 1.55-.3.82-1.05 2.48-.92 1.8-1.03 1.72-.22.33-.84 1.2-.35.46-.84 1.03-.33.38-1.22 1.27-.18.17-1.12 1-.42.34-1 .76-.42.3-1.45.92 13.56-7.88.03-14.8z" fill="#5f72a1"></path><g fill="#fff"><use xlink:href="#C"></use><use xlink:href="#C" y="50.02"></use><path d="M473.03 382.54l-143.1-81.2c-1.96-1.13-3.56-.22-3.56 2.03-.01 2.25 1.58 5 3.54 6.13L473 390.7c1.96 1.13 3.56.22 3.56-2.03.01-2.26-1.58-5-3.54-6.13z"></path><use xlink:href="#C" y="150.09"></use><use xlink:href="#C" y="200.12"></use></g><path d="M181.24 278.77l-1-.5-.77-.4-1.22-.58-.88-.4-.36-.17-2.43-1.03-2.46-.92-.32-.1-2.12-.7-.6-.17-1.07-.3-.83-.23-.86-.2-1.07-.24-.57-.13-1-.16-1.66-.27-2.32-.23-.4-.04-.88-.03-1.55-.05c-.14 0-.3-.01-.43-.01l-1.68.05-.2.01-1.26.1-.8.1-.6.07-2.13.35c-.02 0-.04.01-.06.02l-.57.13-1.72.42-.82.26-1.08.34c-.1.03-.17.07-.26.1l-1.6.66-.78.33-2.27 1.18-7.05 4.1 2.27-1.18.78-.33 1.6-.65 1.34-.45.82-.26 1.72-.42.57-.13 2.2-.36.6-.07 2.04-.18.2-.01 2.1-.03 1.55.05 1.26.07 1.3.13 1.44.17 1.23.2 1.56.3 1.07.24 1.68.42 1.07.3 1.86.58.88.3 5.56 2.23.88.4 2 .97 1 .5 2.66 1.46 7.05-4.1-1.93-1.08c-.2-.16-.45-.28-.7-.4z" fill="#41507e"></path><path d="M514.22 548.64l-.02-.42-.04-.9-.05-1.05-.06-.8-.08-.95-.05-.62-.15-1.35-.12-1.04-.35-2.45c0-.02-.01-.04-.01-.05l-.06-.35-.36-2.06-.07-.37-.2-.98-.24-1.2-.16-.67-.25-1.07-.2-.83-.26-1-.28-1.08-.14-.53-.4-1.4-.27-.9-.08-.26-.8-2.53c0-.01-.01-.02-.01-.03-.02-.07-.05-.14-.08-.22l-.78-2.24-.13-.35-.3-.84-.45-1.2-.3-.76-.64-1.6-.58-1.36-.3-.72-.1-.26-1.07-2.36c-.02-.03-.03-.07-.05-.1l-.32-.66-.88-1.82-.15-.28-.76-1.47-.6-1.2-.12-.2-2.3-4.08-.57-.94-.92-1.52-.85-1.34-.96-1.48-.32-.5-.32-.46-2.77-3.95c-.01-.01-.01-.02-.02-.03l-2.06-2.7-.1-.12-1.57-1.93-.3-.37c-.01-.01-.01-.02-.02-.02l-1.9-2.2c-.03-.04-.07-.07-.1-.1l-.58-.65-1.22-1.35-.23-.25-.84-.88-.93-.97-.35-.35-1.7-1.7-.46-.43-1-.93-.7-.64-.55-.48-1.62-1.4-.67-.55-1-.8-.5-.42-.85-.65-1.3-1-1.92-1.37-.2-.14-2.08-1.37c-.01 0-.01-.01-.02-.01l-.15-.1-1.9-1.16-.48-.28-21.1-12.2-.1-.3-.32-1.08-.84-2.86-.4-1.23-.85-2.63-.42-1.22-.7-2.05-.2-.54-.45-1.2-.7-1.88-.22-.58-.48-1.18-.73-1.8-.24-.6-1.26-2.94-.25-.6-1.37-3-.3-.63-.47-.98-1.03-2.13-.36-.75-.38-.73-1.38-2.68-.45-.87-.28-.5-.88-1.62-.98-1.76-1.6-2.76-2.9-4.78-.48-.75-2.43-3.72-.4-.62-.4-.57-1-1.44-1.18-1.68-1.02-1.42-.68-.94-.4-.5-2.48-3.25-.32-.43-.08-.1-2.67-3.3-.12-.15-.67-.78-2.17-2.54-2.92-3.24-.64-.67-1.75-1.84-.62-.65-.5-.48-1.96-1.93-.72-.72-.3-.27-2.66-2.47-.33-.3c-.01-.01-.03-.02-.04-.04l-3.28-2.86-.75-.6-2.58-2.1-2.65-2.02-.62-.48-.65-.46-2.57-1.82-.53-.35-1.76-1.16-.9-.6-.43-.26-1.7-1.04-1-.62-.73-.42-2.37-1.33c-.02-.01-.05-.02-.07-.04l-2.8-1.45c-.05-.03-.1-.06-.16-.08l-.62-.3-2.4-1.13-.6-.26-1.82-.77-.56-.24-.43-.16-1.96-.74-.6-.23-.2-.06-2.74-.9-.08-.03-2.17-.62-.07-.26-1.37-4.67-1.47-4.6-1.37-3.92-.2-.6-1.63-4.33-.58-1.45-1.14-2.83-.62-1.45-.9-2.1-.28-.66-.62-1.36-1.34-2.96-.57-1.18-1.63-3.38-.47-.9-2.13-4.14-.37-.67-1.03-1.88-1.17-2.1-1.07-1.87-.73-1.28-.33-.54-3.18-5.23-.46-.72-3.45-5.28-1.7-2.48-1.38-1.96-1.24-1.72-.76-1.05-.48-.62-3.33-4.36-.12-.15-3.32-4.1-.8-.92-2.24-2.62-.34-.4-.87-.96-2.06-2.28-.53-.6-.77-.8-2.1-2.2-.73-.77-.6-.58-3.18-3.14-.35-.32-3.53-3.28c-.02-.02-.04-.03-.06-.05l-3.9-3.4-3.96-3.24-.9-.7-2.25-1.72-.73-.56-.77-.55-2.13-1.52-.92-.65-.63-.42-2.1-1.38-1.06-.7-.5-.3-3.22-1.97-.87-.5-2.6-1.45-.22-.12-.38-.2-2.9-1.5-.36-.18a1.01 1.01 0 0 0-.15-.07l-3.13-1.47c-.1-.04-.2-.1-.3-.14l-.4-.16-3.1-1.32c-.01-.01-.03-.01-.05-.02l-3.57-1.34-.28-.1L252 228l-.33-.1-3.32-.92c-.01 0-.02 0-.03-.01l-3.65-.8-.32-.06-.86-.15-1.13-.2-.87-.13-.63-.1-.45-.05-1-.12-1.02-.1-1-.08-.55-.05-.42-.02-1.1-.06-.92-.03-1.1-.02c-.2 0-.4-.01-.6-.01l-.28.01-1.48.04-.64.02-2.07.14c-.06 0-.1.01-.13.01l-2.2.25-.65.1-1.84.3-.34.06c-.03.01-.07.02-.1.02l-2.73.64-.48.13-2.6.8-.2.06-.43.16-1.12.42-.7.28-1.1.47-.66.3-1.16.57-.55.28-1.67.92-7.05 4.1 1.67-.92.55-.28 1.16-.57.67-.3 1.1-.47.7-.28 1.12-.42.62-.22 2.6-.8.48-.13 2.73-.64.44-.08 1.84-.3.65-.1 2.2-.25c.04 0 .1-.01.13-.01l2.07-.14.64-.02 1.48-.04h.88l1.1.02.92.03 1.1.06.97.07 1 .08 1.02.1 1 .12 1.08.15.87.13 1.13.2.86.15.64.13 3.33.74c.05.01.1.03.14.04l3.22.9.52.15 3.08 1 .65.23 3.2 1.2c.02.01.03.01.05.02l3.1 1.32.7.3 3.13 1.47.5.26 2.9 1.5.6.32 2.6 1.45 2.06 1.23 2.03 1.24 1.57 1 2.1 1.38 1.55 1.07 2.13 1.52 1.5 1.1 2.25 1.7 1.42 1.1 2.57 2.1 1.12.92 3.64 3.18.5.45 3.1 2.9 1.2 1.17 2.32 2.3 1.32 1.35 2.08 2.18 1.3 1.4 2.05 2.28 1.2 1.36 2.24 2.62.93 1.1 3.18 3.93.54.7 2.9 3.8 1.24 1.68 1.24 1.7 1.4 1.97 1.2 1.73 1 1.47 2.98 4.56.46.72 3.18 5.23 1.07 1.84 1.06 1.86 1.17 2.1 1.02 1.88.9 1.7 1.6 3.1.88 1.76 1.22 2.53.9 1.9 1.03 2.25.9 2.03.9 2.1.9 2.1.87 2.16.82 2.1.84 2.22.76 2.06.86 2.45.66 1.94.85 2.65.56 1.78.94 3.2.4 1.42 2.25.64 2.74.9.8.3 1.96.74 1 .4 1.82.77.98.43 2 .94.78.38 2.8 1.45 2.44 1.36 1.74 1.04 1.7 1.04 1.33.86 1.76 1.16 1.3.9 1.8 1.27 1.28.94 1.9 1.44 1.2.94 2.14 1.75.96.8 3.07 2.68.37.34 2.66 2.47 1 .98 1.96 1.93 1.1 1.14 1.75 1.84 1.1 1.2 1.73 1.92 1.02 1.15 1.88 2.2.8.93 2.67 3.3.4.53 2.48 3.25 1.06 1.44 1.03 1.42 1.18 1.68 1 1.44.8 1.2 2.43 3.7.48.75 2.66 4.37.92 1.58.92 1.6.98 1.76.88 1.62.73 1.38 1.38 2.68.74 1.5 1.03 2.14.76 1.6.86 1.9.76 1.7.75 1.76.75 1.78.73 1.8.7 1.77.7 1.88.64 1.74.72 2.05.56 1.65.7 2.2.48 1.53 1.15 3.95 21.1 12.2 2.53 1.53 2.3 1.53.77.55 1.52 1.1.92.7 1.36 1.07 1 .8 1.3 1.1 1 .88 1.25 1.13 1 .93 1.25 1.2.92.9 1.28 1.32.84.88 1.46 1.6.58.65 2 2.34.3.37 1.66 2.06 2.04 2.68c.01.02.03.04.04.06l2.77 3.95.64.95.96 1.48.85 1.34.92 1.52.75 1.26 2.1 3.76.73 1.4.76 1.47 1.02 2.1.33.67 1.23 2.7.3.72.85 2.03.37.93.76 1.96.32.84.9 2.6c.02.07.05.15.08.22l.9 2.82.26.9.55 1.95.28 1.07.45 1.8.25 1.07.4 1.86.2.98.5 2.78.4 2.77.1.78.2 1.97.07.94.1 1.86.04.9.05 2.62-.01 3.83-.07 2.7-.05.73-.13 1.8-.1 1-.18 1.48-.16 1.07-.23 1.33-.23 1.17-.27 1.17-.35 1.34-.3 1.02-.52 1.55-.3.82-1.05 2.48-.9 1.8-1.04 1.73-.22.33-.84 1.2-.35.46-.84 1.03-.33.38-1.22 1.27-.18.17-1.12 1-.42.34-1 .76-.42.3-1.45.92 7.05-4.1 1.45-.92.42-.3 1-.76.42-.34 1.12-1 .18-.17 1.22-1.27.33-.38.84-1.03.35-.46.84-1.2.22-.33.07-.1.96-1.62.9-1.72c.01-.03.02-.06.04-.08l1.14-2.7.2-.6.52-1.55c.04-.14.1-.27.14-.4l.16-.6.35-1.34.14-.54c.05-.2.08-.42.12-.62l.23-1.17.12-.6.1-.73.16-1.07.08-.54.1-.94.1-1 .04-.4.1-1.4.05-.73c0-.06.01-.12.01-.18l.06-2.36v-.14-3.83l-.08-2.26z" fill="#c3c3c5"></path><path d="M265.65 241.2c37.8 21.83 69.98 67.67 82.57 113.32 6.24 1.66 12.8 4.4 19.57 8.3 31.87 18.4 59 57.08 69.6 95.57l21.1 12.2c27 15.58 48.8 53.35 48.7 84.36v3.83c-.1 31-22.03 43.52-49.02 27.94L164.5 417.17c-26.98-15.58-48.78-53.34-48.7-84.35l.01-3.83c0-1.6.08-3.12.2-4.6-.1-1.78-.17-3.54-.16-5.3.1-38.58 27.42-54.15 61-34.76 3.74-50.6 42.1-70.08 88.8-43.12z" fill="#fff"></path><path d="M667.48 441.56a1.34 1.34 0 0 1-.45.02c-.17-.01-.33-.05-.5-.1-.18-.06-.36-.14-.55-.25l-11.15-6.44c-.03-.02-.06-.03-.1-.05l-.1-.06c-.04-.02-.07-.04-.1-.05l-.1-.05c-.04-.01-.07-.03-.1-.04-.01 0-.01 0-.02-.01l-.2-.06c-.04-.01-.07-.02-.1-.02-.04-.01-.08-.01-.1-.02-.03 0-.05-.01-.08-.01h-.16c-.05 0-.1 0-.14.01a.77.77 0 0 0-.15.02c-.07.01-.12.03-.17.04-.08.03-.15.06-.22.1l-21.1 12.27c.12-.07.24-.12.38-.14a1.35 1.35 0 0 1 .45-.02c.17.01.33.05.5.1a2.53 2.53 0 0 1 .56.25l11.15 6.44c.03.02.06.03.08.05l.1.06.22.1c.04.01.07.03.1.04.01 0 .01 0 .02.01.04.01.06.02.1.02l.1.03c.04.01.07.02.1.02.04.01.08.01.12.02.03 0 .05.01.08.01h.17c.05 0 .1 0 .14-.01a.77.77 0 0 0 .15-.02c.07-.01.13-.03.2-.05.08-.03.15-.06.22-.1l21.1-12.27c-.15.08-.28.13-.42.16zm68.28 43.04v-.12c0-.04 0-.08-.01-.13 0-.04-.01-.1-.01-.13s-.01-.1-.01-.13c-.01-.04-.01-.1-.02-.14 0-.01 0-.03-.01-.04-.01-.04-.01-.07-.02-.1l-.06-.28c-.01-.05-.02-.1-.04-.14-.01-.05-.03-.1-.04-.14a.58.58 0 0 0-.05-.14l-.03-.08c-.01-.03-.01-.04-.02-.06-.02-.04-.03-.1-.05-.13s-.03-.1-.05-.13l-.18-.4-.1-.18-.16-.28a4.01 4.01 0 0 0-.17-.27l-.15-.2c-.02-.03-.04-.05-.06-.07 0-.01-.01-.01-.01-.02-.02-.02-.03-.05-.05-.07-.03-.04-.07-.08-.1-.12s-.07-.08-.1-.12a.47.47 0 0 0-.1-.1c-.03-.04-.07-.07-.1-.1l-.1-.1c-.03-.03-.05-.05-.08-.07l-.04-.04a1.06 1.06 0 0 0-.12-.1 1.06 1.06 0 0 1-.12-.1l-.12-.1c-.04-.03-.08-.06-.12-.08-.04-.03-.08-.05-.12-.08s-.08-.05-.12-.07c-.01-.01-.02-.01-.03-.02l-11.15-6.44a3.62 3.62 0 0 1-.53-.37c-.18-.15-.34-.3-.5-.47a5.83 5.83 0 0 1-.46-.55l-.4-.6c-.01-.01-.01-.02-.02-.03-.12-.2-.22-.4-.3-.62l-.24-.66a4.27 4.27 0 0 1-.15-.67c-.03-.22-.05-.44-.05-.65l.16-61.65-.02-.3-.03-.3c-.01-.1-.03-.2-.05-.32l-.05-.32-.07-.33-.08-.33-.1-.34c-.02-.1-.05-.17-.08-.26 0-.01 0-.01-.01-.02-.01-.02-.01-.04-.02-.05l-.1-.33-.1-.32-.24-.62c-.03-.08-.07-.15-.1-.23 0-.01 0-.01-.01-.02-.01-.02-.02-.04-.02-.05l-.14-.3-.16-.33c-.06-.13-.13-.25-.2-.38l-.22-.4c-.01-.02-.03-.05-.04-.07-.02-.03-.03-.06-.05-.1l-.47-.75-.4-.56-.28-.38-.48-.6-.25-.27-.07-.07c-.06-.07-.13-.13-.2-.2l-.27-.26-.28-.26-.42-.36-.13-.13-.28-.2-.27-.2-.27-.18-.27-.16c-.02-.01-.04-.02-.06-.04L674.7 374.8l-.17-.08c-.01-.01-.03-.01-.04-.02-.02-.01-.03-.02-.05-.02l-.25-.1c-.1-.03-.17-.07-.25-.1-.01-.01-.03-.01-.04-.01s-.03-.01-.04-.01l-.17-.06-.26-.07-.12-.03c-.02 0-.04-.01-.05-.01-.03-.01-.05-.01-.08-.02l-.28-.05h-.17c-.02 0-.04 0-.06-.01-.02 0-.04 0-.06-.01-.1-.01-.2-.01-.3-.01-.04 0-.08 0-.13.01h-.2c-.12.01-.25.03-.36.05-.04.01-.06.02-.1.02l-.35.1c-.01 0-.02.01-.03.01-.17.06-.33.13-.48.22l-21.1 12.27c.15-.1.32-.16.48-.22l.38-.1c.03-.01.05-.02.08-.02a3.55 3.55 0 0 1 .47-.06h.1c.16-.01.32 0 .48.01.02 0 .04 0 .06.01l.52.08c.02 0 .04.01.05.01.18.04.37.1.56.16.01 0 .03.01.04.01l.6.24c.01.01.03.01.04.02l.63.33 38 21.94c.43.25.85.54 1.26.87l.03.03a13.02 13.02 0 0 1 1.16 1.08l.02.02c.37.4.73.83 1.06 1.28a16.12 16.12 0 0 1 .91 1.41c.01.02.03.05.04.07l.74 1.47c0 .01.01.01.01.02.22.5.4 1.03.57 1.55 0 .01 0 .01.01.02.16.52.28 1.04.36 1.56a9.23 9.23 0 0 1 .12 1.55l-.17 61.17a.57.57 0 0 0 .01.13c0 .04.01.1.01.13s.01.1.01.13c.01.04.01.1.02.13.01.05.01.1.02.14l.06.28c.01.05.02.1.04.14l.03.1c0 .02 0 .02.01.03.01.05.03.1.04.14l.05.14c.02.04.03.1.05.13s.03.1.05.13c.01.03.03.07.04.1 0 .02.01.02.01.03l.06.13a.61.61 0 0 0 .07.14c.03.04.05.1.08.16s.06.1.1.17c.01.01.01.02.02.03s.01.02.02.04l.2.3c.05.08.1.16.17.24l.12.16.1.13c.03.04.07.08.1.12a.47.47 0 0 0 .1.1l.02.02c.04.04.06.07.1.1l.1.1.12.1a1.06 1.06 0 0 0 .12.1c.02.02.04.03.06.05.03.02.04.04.06.05l.12.1c.04.03.08.06.12.08l.2.14c.01.01.02.01.03.02l11.15 6.44a4.19 4.19 0 0 1 .76.57c.25.23.46.47.66.73.2.27.4.55.54.84a5.35 5.35 0 0 1 .39.89c.1.3.18.6.23.9s.07.58.05.85c-.03.54-.2 1-.5 1.32l-39.3 39.72a1.05 1.05 0 0 1-.27.2L695.66 526c.1-.06.2-.13.27-.2l39.5-39.97a1.14 1.14 0 0 0 .1-.19l.06-.15c.02-.05.03-.1.05-.15l.06-.26c.01-.04.01-.08.02-.12s.01-.08.01-.12c0-.03 0-.06.01-.08v-.04c.01-.04.01-.08.01-.12z" fill="#5380f3"></path><path d="M692.06 409.25c3.5 2 6.3 6.9 6.3 10.92l-.17 61.05c0 1.7 1.18 3.75 2.65 4.6l11.15 6.44c2.17 1.25 3.42 4.8 2.14 6.1l-39.3 39.72c-.53.54-1.35.5-2.16.02s-1.63-1.36-2.16-2.5l-38.96-84.9c-1.26-2.75 0-4.85 2.17-3.6l11.15 6.44c1.47.85 2.67.17 2.67-1.52l.17-61.05c.01-4.02 2.85-5.63 6.34-3.62l38.02 21.93z" fill="#fff"></path><path d="M296.24 99.25v-.13c0-.04-.01-.08-.01-.13 0-.04-.01-.08-.01-.13-.01-.04-.01-.1-.02-.13s-.01-.1-.02-.13c0-.01 0-.02-.01-.03-.01-.04-.01-.07-.02-.1l-.03-.14c-.01-.05-.02-.1-.04-.14-.01-.05-.03-.1-.04-.14l-.03-.1c0-.02 0-.03-.01-.03l-.1-.28c-.02-.04-.04-.1-.05-.13l-.06-.13c-.01-.03-.03-.06-.04-.1L256.8 12.4c-.01-.01-.01-.03-.02-.04-.02-.05-.04-.1-.07-.14s-.05-.1-.08-.16l-.13-.24-.12-.2c-.01-.02-.03-.05-.04-.07-.02-.03-.03-.06-.05-.08l-.15-.22-.1-.15c-.03-.04-.07-.08-.1-.13a.7.7 0 0 1-.08-.1c0-.01-.01-.02-.01-.02-.03-.04-.07-.08-.1-.1-.04-.04-.07-.08-.1-.1l-.1-.1-.12-.1c-.04-.04-.08-.07-.12-.1s-.08-.07-.12-.1l-.12-.1c-.04-.03-.08-.06-.12-.08-.04-.03-.08-.05-.1-.07-.04-.02-.07-.05-.1-.07-.01 0-.02-.01-.03-.01-.03-.02-.06-.03-.08-.05l-.1-.06-.22-.1c-.03-.01-.07-.03-.1-.04-.05-.01-.08-.02-.12-.04l-.1-.03c-.04-.01-.07-.02-.1-.02-.04-.01-.08-.01-.1-.02h-.04c-.03 0-.05-.01-.08-.01h-.13c-.05 0-.1 0-.13.01-.04 0-.08.01-.12.02-.08.01-.14.03-.2.05-.08.03-.15.06-.22.1l-21.1 12.27c.13-.07.27-.12.4-.15.15-.03.3-.03.46-.01.17.02.33.06.5.12a2.93 2.93 0 0 1 .51.24c.4.23.8.57 1.18 1 .18.2.34.44.5.68.02.02.03.05.04.07.15.24.3.5.42.77l34.67 75.54-10.92 6.35c-.16.1-.3.24-.4.4-.01.02-.04.03-.05.05-.04.06-.07.12-.1.18v.02l-.06.13-.05.14c-.01.04-.02.1-.04.14 0 .02-.01.04-.01.06 0 .04-.01.06-.01.08-.01.04-.01.08-.02.13-.01.04-.01.08-.01.13 0 .04-.01.08-.01.13v.13l-.2 61.75c0 .02 0 .04-.01.06-.02.2-.05.4-.1.6 0 .03-.01.05-.01.07l-.14.53-.03.1c-.05.16-.1.3-.18.45-.01.02-.01.03-.02.05l-.25.46a3.34 3.34 0 0 1-.44.54l-.12.1c-.17.15-.34.3-.53.4l21.1-12.27c.2-.1.37-.25.53-.4l.12-.1a3.34 3.34 0 0 0 .44-.54c.1-.15.18-.3.25-.44 0 0 0-.01.01-.02s.01-.03.02-.05l.13-.3c.02-.05.03-.1.05-.16l.03-.1.03-.08.08-.32c.01-.04.02-.08.02-.12.01-.03.01-.05.02-.08.01-.04.02-.08.02-.12l.05-.3.02-.17c0-.02 0-.04.01-.06 0-.02.01-.05.01-.07l.02-.3.01-.3v-.02l.13-46.8 15.74-9.15c.1-.06.2-.13.28-.22.03-.03.05-.06.07-.1l.12-.14c.02-.02.03-.05.04-.08.01-.02.02-.03.03-.05l.03-.06c.02-.05.05-.1.07-.16.02-.05.03-.1.05-.15l.06-.26c.01-.04.01-.08.02-.13 0-.02 0-.04.01-.07v-.05c0-.04.01-.08.01-.13v-.12c-.05-.1-.05-.13-.05-.17z" fill="#d2d2d2"></path><path d="M233.5 22.15c.8.47 1.62 1.36 2.15 2.5l38.96 84.9c1.26 2.75-.01 4.86-2.18 3.6l-11.14-6.43c-1.48-.85-2.67-.17-2.67 1.52l-.17 61.05c-.01 4.02-2.86 5.63-6.35 3.62l-38-21.94c-3.5-2.02-6.32-6.9-6.3-10.92l.17-61.05c0-1.7-1.18-3.75-2.65-4.6l-11.15-6.44c-2.17-1.25-3.42-4.8-2.14-6.1l39.32-39.7c.54-.53 1.35-.48 2.16-.01z" fill="#5380f3"></path><defs><path id="B" d="M558.9 239.45l-143.1-81.2c-1.96-1.13-3.55-.22-3.56 2.03s1.58 5 3.54 6.13l143.1 81.2c1.96 1.13 3.55.22 3.56-2.03 0-2.25-1.58-5-3.54-6.13z"></path><path id="C" d="M473.03 282.48l-143.1-81.2c-1.96-1.13-3.56-.22-3.56 2.03-.01 2.25 1.58 5 3.54 6.13l143.1 81.2c1.96 1.13 3.56.22 3.56-2.03.01-2.26-1.58-5-3.54-6.13z"></path></defs></svg> 